HIERARCHY
ROOT Hips
{
	OFFSET 0.000000 0.000000 0.000000
	CHANNELS 6 Xposition Yposition Zposition Xrotation Yrotation Zrotation
	JOINT LeftUpLeg_virtual
	{
		OFFSET 0.000000 0.000000 0.000000
		CHANNELS 3 Xrotation Yrotation Zrotation
		JOINT LeftUpLeg
		{
			OFFSET 15.427100 -6.655098 0.678600
			CHANNELS 3 Xrotation Yrotation Zrotation
			JOINT LeftLeg
			{
				OFFSET 4.081073 -39.591068 13.024000
				CHANNELS 3 Xrotation Yrotation Zrotation
				JOINT LeftFoot
				{
					OFFSET -4.081074 -37.707932 -15.979700
					CHANNELS 3 Xrotation Yrotation Zrotation
					JOINT LeftToeBase
					{
						OFFSET 5.346399 -15.068900 20.645000
						CHANNELS 3 Xrotation Yrotation Zrotation
						JOINT LeftToe_End
						{
							OFFSET 2.754700 0.931300 11.300900
							CHANNELS 3 Xrotation Yrotation Zrotation
							End Site
							{
								OFFSET 0 0 0
							}
						}
					}
				}
			}
		}
	}
	JOINT RightUpLeg_virtual
	{
		OFFSET 0.000000 0.000000 0.000000
		CHANNELS 3 Xrotation Yrotation Zrotation
		JOINT RightUpLeg
		{
			OFFSET -15.569500 -6.655098 0.678600
			CHANNELS 3 Xrotation Yrotation Zrotation
			JOINT RightLeg
			{
				OFFSET -4.081825 -39.591045 13.023800
				CHANNELS 3 Xrotation Yrotation Zrotation
				JOINT RightFoot
				{
					OFFSET 4.081824 -37.707954 -15.979600
					CHANNELS 3 Xrotation Yrotation Zrotation
					JOINT RightToeBase
					{
						OFFSET -5.346400 -15.068900 20.645000
						CHANNELS 3 Xrotation Yrotation Zrotation
						JOINT RightToe_End
						{
							OFFSET -2.754700 0.931300 11.300900
							CHANNELS 3 Xrotation Yrotation Zrotation
							End Site
							{
								OFFSET 0 0 0
							}
						}
					}
				}
			}
		}
	}
	JOINT Spine_virtual
	{
		OFFSET 0.000000 0.000000 0.000000
		CHANNELS 3 Xrotation Yrotation Zrotation
		JOINT Spine
		{
			OFFSET -0.279200 12.230698 -2.892100
			CHANNELS 3 Xrotation Yrotation Zrotation
			JOINT Spine1
			{
				OFFSET -0.232667 10.192268 -1.242267
				CHANNELS 3 Xrotation Yrotation Zrotation
				JOINT Spine1_split
				{
					OFFSET -0.232667 10.192268 -1.242267
					CHANNELS 3 Xrotation Yrotation Zrotation
					JOINT Spine2
					{
						OFFSET -0.232667 10.192268 -1.242267
						CHANNELS 3 Xrotation Yrotation Zrotation
						JOINT Neck_virtual
						{
							OFFSET 0.000000 0.000000 0.000000
							CHANNELS 3 Xrotation Yrotation Zrotation
							JOINT Neck
							{
								OFFSET -0.418800 17.814194 8.416900
								CHANNELS 3 Xrotation Yrotation Zrotation
								JOINT Head
								{
									OFFSET 0.000000 7.031097 3.806800
									CHANNELS 3 Xrotation Yrotation Zrotation
									JOINT HeadTop_End
									{
										OFFSET 0.000000 24.646606 12.978600
										CHANNELS 3 Xrotation Yrotation Zrotation
										End Site
										{
											OFFSET 0 0 0
										}
									}
								}
							}
						}
						JOINT LeftShoulder_virtual
						{
							OFFSET 0.000000 0.000000 0.000000
							CHANNELS 3 Xrotation Yrotation Zrotation
							JOINT LeftShoulder
							{
								OFFSET 8.476499 7.247704 -3.868750
								CHANNELS 3 Xrotation Yrotation Zrotation
								JOINT LeftShoulder_split
								{
									OFFSET 8.476499 7.247704 -3.868750
									CHANNELS 3 Xrotation Yrotation Zrotation
									JOINT LeftArm
									{
										OFFSET 9.308998 -2.777710 0.208600
										CHANNELS 3 Xrotation Yrotation Zrotation
										JOINT LeftForeArm
										{
											OFFSET 29.972298 0.000000 0.000000
											CHANNELS 3 Xrotation Yrotation Zrotation
											JOINT LeftHand
											{
												OFFSET 26.026505 0.000000 0.000000
												CHANNELS 3 Xrotation Yrotation Zrotation
												End Site
												{
													OFFSET 0 0 0
												}
											}
										}
									}
								}
							}
						}
						JOINT RightShoulder_virtual
						{
							OFFSET 0.000000 0.000000 0.000000
							CHANNELS 3 Xrotation Yrotation Zrotation
							JOINT RightShoulder
							{
								OFFSET -7.570500 7.247704 -3.868750
								CHANNELS 3 Xrotation Yrotation Zrotation
								JOINT RightShoulder_split
								{
									OFFSET -7.570500 7.247704 -3.868750
									CHANNELS 3 Xrotation Yrotation Zrotation
									JOINT RightArm
									{
										OFFSET -9.308998 -2.777710 0.208500
										CHANNELS 3 Xrotation Yrotation Zrotation
										JOINT RightForeArm
										{
											OFFSET -29.972300 0.000000 0.000000
											CHANNELS 3 Xrotation Yrotation Zrotation
											JOINT RightHand
											{
												OFFSET -26.026505 0.000000 0.000000
												CHANNELS 3 Xrotation Yrotation Zrotation
												End Site
												{
													OFFSET 0 0 0
												}
											}
										}
									}
								}
							}
						}
					}
				}
			}
		}
	}
}
MOTION
Frames: 10
Frame Time: 0.03333333
3.188252 90.406166 -9.685404 0.000000 0.000000 0.000000 -17.841979 -7.708870 -1.784287 5.606775 32.106042 3.977938 28.509505 7.971887 -3.500029 -15.508913 19.171581 -8.647607 -2.157475 -3.968114 6.473463 0.000000 0.000000 0.000000 -16.947559 -8.575258 -2.458604 24.074902 -14.768295 4.697818 20.700417 -0.881487 7.531546 -30.715982 -25.866434 1.134290 -5.931981 5.022174 -12.756161 0.000000 0.000000 0.000000 -17.824149 -3.751900 -2.378101 5.976534 -6.099779 -3.191453 2.806406 -0.537542 -0.648749 0.158669 0.092410 -0.011720 0.000000 0.000000 0.000000 6.845093 0.580352 -0.154952 4.222538 3.455859 1.537327 -12.977327 -20.045292 9.209287 0.000000 0.000000 0.000000 5.607454 -0.628451 -0.655950 5.862032 -4.167063 -9.949716 7.467087 -7.971354 -0.455966 -28.846317 6.787623 -32.517776 8.102519 -52.375065 6.245122 0.000000 0.000000 0.000000 4.884330 -0.993178 -0.301237 -1.258692 8.767904 16.508610 4.252199 3.563183 1.137129 -12.773803 0.847961 60.350978 -7.445179 38.734635 4.765359 0.000000 0.000000 0.000000 
2.873589 90.310318 -9.627466 0.000000 0.000000 0.000000 -17.948921 -7.859330 -1.935086 4.914300 31.508250 4.902516 30.318267 7.931330 -3.819545 -15.004508 18.872245 -8.083058 -1.306529 -3.822343 6.141634 0.000000 0.000000 0.000000 -16.806155 -8.549525 -2.497944 23.849364 -14.982971 4.983607 21.255173 -0.740079 7.269545 -30.739464 -26.246752 1.143480 -5.206602 4.879617 -12.621664 0.000000 0.000000 0.000000 -17.885656 -4.175751 -2.526050 6.233319 -6.294348 -3.230056 2.781061 -0.575740 -0.655277 0.157541 0.056210 -0.004589 0.000000 0.000000 0.000000 6.845009 0.547836 -0.160085 4.272569 3.514776 1.530318 -12.925485 -19.958817 9.210049 0.000000 0.000000 0.000000 5.677509 -0.677644 -0.643651 5.827732 -4.258260 -9.980307 7.522734 -7.991667 -0.458178 -29.152743 6.576677 -32.723604 8.170415 -52.677609 6.347804 0.000000 0.000000 0.000000 4.877076 -1.033846 -0.279806 -1.224466 8.748474 16.516915 4.107121 3.168327 1.115714 -12.632105 0.517133 60.414212 -7.521911 38.683876 4.858404 0.000000 0.000000 0.000000 
2.416364 90.294601 -9.426844 0.000000 0.000000 0.000000 -18.048814 -8.242195 -2.520930 2.357639 30.372635 7.209876 33.468227 7.399369 -4.323283 -12.907672 17.453654 -7.995153 0.379682 -3.649219 5.269450 0.000000 0.000000 0.000000 -16.732891 -8.804872 -2.930964 23.526015 -15.200231 5.197473 22.039712 -0.210779 7.113046 -31.293222 -26.504819 1.025618 -3.630481 4.772031 -12.852095 0.000000 0.000000 0.000000 -17.913208 -5.020233 -3.037918 6.456067 -6.440167 -3.046224 2.774053 -0.653611 -0.685256 0.159724 0.031857 0.000279 0.000000 0.000000 0.000000 6.857999 0.474702 -0.203163 4.354580 3.599650 1.537443 -12.910641 -19.652485 9.390378 0.000000 0.000000 0.000000 5.743771 -0.774895 -0.668454 5.751860 -4.305624 -10.070553 7.576293 -7.981177 -0.466249 -29.634398 6.373456 -32.986989 8.386603 -52.837479 6.545457 0.000000 0.000000 0.000000 4.880057 -1.120435 -0.277077 -1.182293 8.579428 16.446534 3.707255 2.819401 1.166556 -12.342113 0.263640 60.341709 -7.647968 38.605199 5.001237 0.000000 0.000000 0.000000 
1.967021 90.353149 -9.113661 0.000000 0.000000 0.000000 -18.208000 -9.032604 -3.458654 -1.048109 28.566223 10.149971 36.617730 6.167498 -4.639830 -9.421139 14.730450 -8.537281 -0.719316 -3.771788 4.968126 0.000000 0.000000 0.000000 -16.800112 -9.494861 -3.697829 23.120472 -15.343579 5.330095 22.929493 0.660440 7.026182 -31.999365 -26.647881 0.949733 -1.933593 4.761301 -13.392306 0.000000 0.000000 0.000000 -17.942507 -6.195677 -3.817181 6.613577 -6.493968 -2.683561 2.799263 -0.748321 -0.730115 0.167425 0.041347 0.007936 0.000000 0.000000 0.000000 6.873764 0.374083 -0.275826 4.466962 3.698698 1.555151 -12.920134 -19.150935 9.680304 0.000000 0.000000 0.000000 5.802846 -0.907790 -0.719872 5.632447 -4.307900 -10.199335 7.634145 -7.922087 -0.424723 -30.163239 6.229762 -33.265849 8.641595 -52.778781 6.739706 0.000000 0.000000 0.000000 4.898659 -1.232934 -0.287978 -1.134136 8.298566 16.292783 3.152933 2.631195 1.212998 -11.965823 0.191665 60.169998 -7.791610 38.503101 5.152359 0.000000 0.000000 0.000000 
1.635616 90.476257 -8.622889 0.000000 0.000000 0.000000 -18.437464 -10.406884 -4.567776 -3.564525 26.104676 12.388439 38.571492 4.646888 -4.436772 -6.463471 11.210671 -8.751104 -5.108179 -4.268638 5.489713 0.000000 0.000000 0.000000 -16.980982 -10.659210 -4.652012 22.557345 -15.333503 5.246512 23.747202 1.889827 6.944457 -32.165342 -26.780864 1.443027 -1.275322 4.918263 -14.118538 0.000000 0.000000 0.000000 -18.055866 -7.833891 -4.755065 6.710745 -6.428909 -2.227106 2.861019 -0.843333 -0.778673 0.171433 0.057053 -0.002341 0.000000 0.000000 0.000000 6.889879 0.262249 -0.357045 4.600991 3.819592 1.575263 -12.977319 -18.494547 9.998118 0.000000 0.000000 0.000000 5.866593 -1.057801 -0.773660 5.483693 -4.287527 -10.324709 7.729291 -7.857353 -0.343255 -30.641106 6.138933 -33.495873 8.814094 -52.575859 6.818801 0.000000 0.000000 0.000000 4.926232 -1.350277 -0.302993 -1.095239 7.949644 16.080818 2.557959 2.507912 1.260898 -11.567210 0.355968 59.926891 -7.913731 38.356041 5.258104 0.000000 0.000000 0.000000 
1.443300 90.620140 -7.915628 0.000000 0.000000 0.000000 -18.706362 -12.413649 -5.667105 -4.722400 23.555625 13.260055 39.394509 3.579932 -3.876190 -5.639195 7.992348 -8.030439 -8.388335 -4.775441 5.721185 0.000000 0.000000 0.000000 -17.249810 -12.433498 -5.621706 21.823880 -15.043126 4.874741 24.415903 3.445286 6.739530 -31.600160 -26.932665 2.614506 -1.657639 5.191217 -14.854056 0.000000 0.000000 0.000000 -18.354530 -9.986616 -5.780754 6.745054 -6.232236 -1.780025 2.945651 -0.924520 -0.815612 0.160418 0.087919 -0.022269 0.000000 0.000000 0.000000 6.907493 0.154817 -0.431336 4.733706 3.960252 1.585203 -13.129189 -17.716000 10.256786 0.000000 0.000000 0.000000 5.949190 -1.202731 -0.809814 5.324001 -4.275943 -10.437323 7.840670 -7.809719 -0.244558 -31.011753 6.108306 -33.627026 8.834013 -52.339118 6.723974 0.000000 0.000000 0.000000 4.958047 -1.457830 -0.310273 -1.077804 7.597120 15.854063 1.967778 2.347315 1.312343 -11.191153 0.724730 59.667938 -7.978140 38.163296 5.272321 0.000000 0.000000 0.000000 
1.393280 90.755791 -7.085512 0.000000 0.000000 0.000000 -19.073245 -14.957530 -6.677607 -4.823133 21.105040 12.936984 39.206047 2.837809 -2.986017 -6.624154 5.527199 -7.470479 -8.252377 -4.963398 5.466533 0.000000 0.000000 0.000000 -17.626939 -14.883389 -6.531525 20.985222 -14.426403 4.291737 24.822646 5.042340 6.344643 -30.756089 -27.041305 3.755020 -2.081663 5.406580 -15.397039 0.000000 0.000000 0.000000 -18.877096 -12.517582 -6.819965 6.738622 -5.938971 -1.428466 3.050771 -0.986538 -0.836406 0.157431 0.114495 -0.033925 0.000000 0.000000 0.000000 6.937010 0.070679 -0.482901 4.860964 4.128714 1.580140 -13.426446 -16.822288 10.412567 0.000000 0.000000 0.000000 6.043114 -1.324281 -0.815351 5.170158 -4.308650 -10.523384 7.927832 -7.747785 -0.210975 -31.268084 6.125069 -33.650177 8.671127 -52.120258 6.434168 0.000000 0.000000 0.000000 4.987022 -1.542332 -0.298948 -1.081740 7.298223 15.656213 1.464442 2.144993 1.380235 -10.864273 1.190775 59.405441 -7.976494 37.943641 5.176276 0.000000 0.000000 0.000000 
1.489131 90.897362 -6.180414 0.000000 0.000000 0.000000 -19.579140 -18.132732 -7.676923 -4.055027 18.644033 11.604167 38.060225 2.093657 -1.815151 -8.299128 3.941837 -8.072078 -5.733670 -4.859001 5.115208 0.000000 0.000000 0.000000 -18.078285 -17.924167 -7.420914 20.049728 -13.618127 3.607462 24.941486 6.453483 5.777377 -30.190495 -27.127128 4.203213 -1.806596 5.440979 -15.673817 0.000000 0.000000 0.000000 -19.563270 -15.361394 -7.897964 6.695191 -5.561629 -1.202541 3.159804 -1.027135 -0.838321 0.158081 0.111900 -0.037721 0.000000 0.000000 0.000000 6.994506 0.024305 -0.498550 4.958220 4.313750 1.563643 -13.869322 -15.899924 10.469466 0.000000 0.000000 0.000000 6.131379 -1.407152 -0.793626 5.031542 -4.394648 -10.586135 7.987782 -7.671523 -0.255464 -31.432257 6.158387 -33.584750 8.388471 -51.943746 6.004262 0.000000 0.000000 0.000000 5.009989 -1.599966 -0.275422 -1.120554 7.114094 15.539563 1.068461 1.841345 1.458321 -10.589877 1.621897 59.151105 -7.918739 37.751579 4.974782 0.000000 0.000000 0.000000 
1.642810 91.100693 -5.230600 0.000000 0.000000 0.000000 -20.247768 -21.818872 -8.734622 -3.015951 16.500501 9.759495 36.361584 1.331613 -0.596649 -9.579030 3.011006 -9.590114 -3.388062 -4.666872 4.995281 0.000000 0.000000 0.000000 -18.639303 -21.310194 -8.364752 19.062780 -12.784325 2.913154 24.812858 7.653936 5.083563 -29.892729 -27.212788 3.978208 -0.978242 5.341567 -15.815055 0.000000 0.000000 0.000000 -20.370185 -18.397726 -9.069303 6.654869 -5.111813 -1.082146 3.267166 -1.037506 -0.827068 0.155634 0.094655 -0.027960 0.000000 0.000000 0.000000 7.074273 0.020304 -0.484023 4.983602 4.494369 1.557963 -14.385717 -15.021468 10.479155 0.000000 0.000000 0.000000 6.191858 -1.442198 -0.765468 4.901721 -4.519196 -10.649268 7.940896 -7.599245 -0.330477 -31.523365 6.195221 -33.464502 8.082626 -51.768148 5.533357 0.000000 0.000000 0.000000 5.019798 -1.626868 -0.243987 -1.190912 7.069811 15.519477 0.798142 1.483201 1.467374 -10.371571 1.911420 58.930367 -7.823357 37.651319 4.686683 0.000000 0.000000 0.000000 
1.820904 91.384361 -4.362206 0.000000 0.000000 0.000000 -21.136148 -25.756145 -9.933548 -2.117384 14.892737 7.726933 34.681085 0.695637 0.634311 -10.009876 2.240571 -11.169121 -3.047028 -4.568365 5.189118 0.000000 0.000000 0.000000 -19.331032 -24.797980 -9.418929 18.016209 -12.073691 2.239647 24.570224 8.747902 4.353564 -29.243766 -27.319918 3.696609 -0.389232 5.261674 -16.011244 0.000000 0.000000 0.000000 -21.242665 -21.505441 -10.340104 6.646312 -4.591975 -1.022258 3.379118 -1.011606 -0.818402 0.151257 0.066259 -0.020862 0.000000 0.000000 0.000000 7.150289 0.056976 -0.454076 4.934251 4.650003 1.580438 -14.877095 -14.226791 10.504178 0.000000 0.000000 0.000000 6.221599 -1.430432 -0.749733 4.778055 -4.670355 -10.697053 7.817675 -7.524522 -0.403239 -31.587262 6.231996 -33.306321 7.826098 -51.503120 5.111152 0.000000 0.000000 0.000000 5.007023 -1.614044 -0.205501 -1.292751 7.169521 15.594235 0.652678 1.093565 1.394995 -10.215794 2.060845 58.745139 -7.705973 37.654075 4.327453 0.000000 0.000000 0.000000 
